<svg width="32" height="32" viewBox="0 0 32 32" fill="none" xmlns="http://www.w3.org/2000/svg">
<path fill-rule="evenodd" clip-rule="evenodd" d="M27.666 9.33325C27.666 9.88554 27.2183 10.3333 26.666 10.3333L5.33268 10.3333C4.7804 10.3333 4.33268 9.88554 4.33268 9.33325C4.33268 8.78097 4.7804 8.33325 5.33268 8.33325L26.666 8.33325C27.2183 8.33325 27.666 8.78097 27.666 9.33325Z" fill="#5E5E5E"/>
<path fill-rule="evenodd" clip-rule="evenodd" d="M27.666 16C27.666 16.5523 27.2183 17 26.666 17L5.33268 17C4.7804 17 4.33268 16.5523 4.33268 16C4.33268 15.4477 4.7804 15 5.33268 15L26.666 15C27.2183 15 27.666 15.4477 27.666 16Z" fill="#5E5E5E"/>
<path fill-rule="evenodd" clip-rule="evenodd" d="M27.666 22.6667C27.666 23.219 27.2183 23.6667 26.666 23.6667L5.33268 23.6667C4.7804 23.6667 4.33268 23.219 4.33268 22.6667C4.33268 22.1145 4.7804 21.6667 5.33268 21.6667L26.666 21.6667C27.2183 21.6667 27.666 22.1145 27.666 22.6667Z" fill="#5E5E5E"/>
</svg>
