<svg width="20" height="20" viewBox="0 0 20 20" fill="none" xmlns="http://www.w3.org/2000/svg">
<path d="M8.35866 7.47479C8.11459 7.23072 7.71886 7.23072 7.47478 7.47479C7.2307 7.71887 7.2307 8.1146 7.47478 8.35868L9.11618 10.0001L7.4748 11.6415C7.23072 11.8855 7.23072 12.2813 7.4748 12.5253C7.71888 12.7694 8.1146 12.7694 8.35868 12.5253L10.0001 10.884L11.6414 12.5253C11.8855 12.7694 12.2812 12.7694 12.5253 12.5253C12.7694 12.2812 12.7694 11.8855 12.5253 11.6414L10.8839 10.0001L12.5253 8.35869C12.7694 8.11462 12.7694 7.71889 12.5253 7.47481C12.2813 7.23073 11.8855 7.23073 11.6414 7.47481L10.0001 9.11619L8.35866 7.47479Z" fill="#F3164E"/>
<path fill-rule="evenodd" clip-rule="evenodd" d="M10.0001 1.04175C5.05253 1.04175 1.04175 5.05253 1.04175 10.0001C1.04175 14.9476 5.05253 18.9584 10.0001 18.9584C14.9476 18.9584 18.9584 14.9476 18.9584 10.0001C18.9584 5.05253 14.9476 1.04175 10.0001 1.04175ZM2.29175 10.0001C2.29175 5.74289 5.74289 2.29175 10.0001 2.29175C14.2573 2.29175 17.7084 5.74289 17.7084 10.0001C17.7084 14.2573 14.2573 17.7084 10.0001 17.7084C5.74289 17.7084 2.29175 14.2573 2.29175 10.0001Z" fill="#F3164E"/>
<path d="M8.35866 7.47479C8.11459 7.23072 7.71886 7.23072 7.47478 7.47479C7.2307 7.71887 7.2307 8.1146 7.47478 8.35868L9.11618 10.0001L7.4748 11.6415C7.23072 11.8855 7.23072 12.2813 7.4748 12.5253C7.71888 12.7694 8.1146 12.7694 8.35868 12.5253L10.0001 10.884L11.6414 12.5253C11.8855 12.7694 12.2812 12.7694 12.5253 12.5253C12.7694 12.2812 12.7694 11.8855 12.5253 11.6414L10.8839 10.0001L12.5253 8.35869C12.7694 8.11462 12.7694 7.71889 12.5253 7.47481C12.2813 7.23073 11.8855 7.23073 11.6414 7.47481L10.0001 9.11619L8.35866 7.47479Z" stroke="#F3164E"/>
<path fill-rule="evenodd" clip-rule="evenodd" d="M10.0001 1.04175C5.05253 1.04175 1.04175 5.05253 1.04175 10.0001C1.04175 14.9476 5.05253 18.9584 10.0001 18.9584C14.9476 18.9584 18.9584 14.9476 18.9584 10.0001C18.9584 5.05253 14.9476 1.04175 10.0001 1.04175ZM2.29175 10.0001C2.29175 5.74289 5.74289 2.29175 10.0001 2.29175C14.2573 2.29175 17.7084 5.74289 17.7084 10.0001C17.7084 14.2573 14.2573 17.7084 10.0001 17.7084C5.74289 17.7084 2.29175 14.2573 2.29175 10.0001Z" stroke="#F3164E"/>
</svg>
