<svg width="20" height="20" viewBox="0 0 20 20" fill="none" xmlns="http://www.w3.org/2000/svg">
<path d="M10.0234 10.0001C10.0234 8.15913 11.5158 6.66675 13.3568 6.66675C15.1977 6.66675 16.6901 8.15917 16.6901 10.0001C16.6901 11.841 15.1977 13.3334 13.3568 13.3334C11.5158 13.3334 10.0234 11.841 10.0234 10.0001Z" fill="#00BCFF"/>
<path d="M3.35693 16.6667C3.35693 14.8257 4.84932 13.3334 6.69025 13.3334L8.46662 12.3955L10.0236 13.3334V16.6667C10.0236 18.5077 8.53119 20 6.69025 20C4.84932 20 3.35693 18.5076 3.35693 16.6667Z" fill="#00CF7F"/>
<path d="M10.0233 0L8.20947 3.15117L10.0233 6.66664H13.3099C15.1508 6.66664 16.6432 5.17426 16.6432 3.33332C16.6432 1.49238 15.1508 0 13.3099 0H10.0233Z" fill="#FF7361"/>
<path d="M3.31006 3.33332C3.31006 5.17426 4.80244 6.66664 6.64338 6.66664L8.41162 7.34961L10.0235 6.66664V0H6.64334C4.80244 0 3.31006 1.49238 3.31006 3.33332Z" fill="#FF4D12"/>
<path d="M3.35693 10.0001C3.35693 11.8411 4.84932 13.3334 6.69025 13.3334H10.0236V6.66675H6.69025C4.84932 6.66675 3.35693 8.15917 3.35693 10.0001Z" fill="#B659FF"/>
</svg>
