<svg width="36" height="36" viewBox="0 0 36 36" fill="none" xmlns="http://www.w3.org/2000/svg">
<rect x="0.5" y="0.5" width="35" height="35" rx="7.5" stroke="#BABABA"/>
<path d="M9.75 14.25H12.8438C13.009 14.8953 13.3843 15.4673 13.9105 15.8758C14.4367 16.2842 15.0839 16.5059 15.75 16.5059C16.4161 16.5059 17.0633 16.2842 17.5895 15.8758C18.1157 15.4673 18.491 14.8953 18.6562 14.25H26.25C26.4489 14.25 26.6397 14.171 26.7803 14.0304C26.921 13.8897 27 13.6989 27 13.5C27 13.3011 26.921 13.1103 26.7803 12.9697C26.6397 12.829 26.4489 12.75 26.25 12.75H18.6562C18.491 12.1047 18.1157 11.5327 17.5895 11.1243C17.0633 10.7158 16.4161 10.4941 15.75 10.4941C15.0839 10.4941 14.4367 10.7158 13.9105 11.1243C13.3843 11.5327 13.009 12.1047 12.8438 12.75H9.75C9.55109 12.75 9.36032 12.829 9.21967 12.9697C9.07902 13.1103 9 13.3011 9 13.5C9 13.6989 9.07902 13.8897 9.21967 14.0304C9.36032 14.171 9.55109 14.25 9.75 14.25ZM15.75 12C16.0467 12 16.3367 12.088 16.5834 12.2528C16.83 12.4176 17.0223 12.6519 17.1358 12.926C17.2494 13.2001 17.2791 13.5017 17.2212 13.7927C17.1633 14.0836 17.0204 14.3509 16.8107 14.5607C16.6009 14.7705 16.3336 14.9133 16.0426 14.9712C15.7517 15.0291 15.4501 14.9994 15.176 14.8858C14.9019 14.7723 14.6676 14.5801 14.5028 14.3334C14.338 14.0867 14.25 13.7967 14.25 13.5C14.25 13.1022 14.408 12.7207 14.6893 12.4394C14.9706 12.1581 15.3522 12 15.75 12ZM26.25 21.75H24.6562C24.491 21.1047 24.1157 20.5327 23.5895 20.1243C23.0633 19.7158 22.4161 19.4941 21.75 19.4941C21.0839 19.4941 20.4367 19.7158 19.9105 20.1243C19.3843 20.5327 19.009 21.1047 18.8438 21.75H9.75C9.55109 21.75 9.36032 21.829 9.21967 21.9697C9.07902 22.1103 9 22.3011 9 22.5C9 22.6989 9.07902 22.8897 9.21967 23.0304C9.36032 23.171 9.55109 23.25 9.75 23.25H18.8438C19.009 23.8953 19.3843 24.4673 19.9105 24.8758C20.4367 25.2842 21.0839 25.5059 21.75 25.5059C22.4161 25.5059 23.0633 25.2842 23.5895 24.8758C24.1157 24.4673 24.491 23.8953 24.6562 23.25H26.25C26.4489 23.25 26.6397 23.171 26.7803 23.0304C26.921 22.8897 27 22.6989 27 22.5C27 22.3011 26.921 22.1103 26.7803 21.9697C26.6397 21.829 26.4489 21.75 26.25 21.75ZM21.75 24C21.4533 24 21.1633 23.912 20.9166 23.7472C20.67 23.5824 20.4777 23.3481 20.3642 23.074C20.2506 22.8 20.2209 22.4984 20.2788 22.2074C20.3367 21.9164 20.4796 21.6491 20.6893 21.4394C20.8991 21.2296 21.1664 21.0867 21.4574 21.0288C21.7483 20.971 22.0499 21.0007 22.324 21.1142C22.5981 21.2277 22.8324 21.42 22.9972 21.6667C23.162 21.9133 23.25 22.2034 23.25 22.5C23.25 22.8978 23.092 23.2794 22.8107 23.5607C22.5294 23.842 22.1478 24 21.75 24Z" fill="#474747"/>
</svg>
