<svg width="237" height="28" viewBox="0 0 237 28" fill="none" xmlns="http://www.w3.org/2000/svg">
<rect y="3" width="237" height="25" rx="12.5" fill="#00550E"/>
<path d="M15.381 21V16.779L12 10.92H13.19L15.899 15.603L18.594 10.92H19.784L16.417 16.779V21H15.381ZM22.8372 21.21C22.0999 21.21 21.4605 21.0467 20.9192 20.72C20.3825 20.3933 19.9649 19.9337 19.6662 19.341C19.3675 18.7483 19.2182 18.053 19.2182 17.255C19.2182 16.429 19.3652 15.715 19.6592 15.113C19.9532 14.511 20.3662 14.0467 20.8982 13.72C21.4349 13.3933 22.0672 13.23 22.7952 13.23C23.5419 13.23 24.1789 13.4027 24.7062 13.748C25.2335 14.0887 25.6325 14.5787 25.9032 15.218C26.1739 15.8573 26.2975 16.6203 26.2742 17.507H25.2242V17.143C25.2055 16.163 24.9932 15.4233 24.5872 14.924C24.1859 14.4247 23.5979 14.175 22.8232 14.175C22.0112 14.175 21.3882 14.4387 20.9542 14.966C20.5249 15.4933 20.3102 16.2447 20.3102 17.22C20.3102 18.172 20.5249 18.9117 20.9542 19.439C21.3882 19.9617 22.0019 20.223 22.7952 20.223C23.3365 20.223 23.8079 20.0993 24.2092 19.852C24.6152 19.6 24.9349 19.2383 25.1682 18.767L26.1272 19.138C25.8285 19.796 25.3875 20.307 24.8042 20.671C24.2255 21.0303 23.5699 21.21 22.8372 21.21ZM19.9462 17.507V16.646H25.7212V17.507H19.9462ZM29.8539 21.21C29.2846 21.21 28.8063 21.1073 28.4189 20.902C28.0363 20.6967 27.7493 20.4237 27.5579 20.083C27.3666 19.7423 27.2709 19.3713 27.2709 18.97C27.2709 18.5593 27.3526 18.2093 27.5159 17.92C27.6839 17.626 27.9103 17.3857 28.1949 17.199C28.4843 17.0123 28.8179 16.87 29.1959 16.772C29.5786 16.6787 30.0009 16.597 30.4629 16.527C30.9296 16.4523 31.3846 16.3893 31.8279 16.338C32.2759 16.282 32.6679 16.2283 33.0039 16.177L32.6399 16.401C32.6539 15.6543 32.5093 15.1013 32.2059 14.742C31.9026 14.3827 31.3753 14.203 30.6239 14.203C30.1059 14.203 29.6673 14.3197 29.3079 14.553C28.9533 14.7863 28.7036 15.155 28.5589 15.659L27.5579 15.365C27.7306 14.6883 28.0783 14.1633 28.6009 13.79C29.1236 13.4167 29.8026 13.23 30.6379 13.23C31.3286 13.23 31.9143 13.3607 32.3949 13.622C32.8803 13.8787 33.2233 14.252 33.4239 14.742C33.5173 14.9613 33.5779 15.2063 33.6059 15.477C33.6339 15.7477 33.6479 16.023 33.6479 16.303V21H32.7309V19.103L32.9969 19.215C32.7403 19.8637 32.3413 20.3583 31.7999 20.699C31.2586 21.0397 30.6099 21.21 29.8539 21.21ZM29.9729 20.321C30.4536 20.321 30.8736 20.2347 31.2329 20.062C31.5923 19.8893 31.8816 19.6537 32.1009 19.355C32.3203 19.0517 32.4626 18.711 32.5279 18.333C32.5839 18.0903 32.6143 17.8243 32.6189 17.535C32.6236 17.241 32.6259 17.0217 32.6259 16.877L33.0179 17.08C32.6679 17.1267 32.2876 17.1733 31.8769 17.22C31.4709 17.2667 31.0696 17.3203 30.6729 17.381C30.2809 17.4417 29.9263 17.514 29.6089 17.598C29.3943 17.6587 29.1866 17.745 28.9859 17.857C28.7853 17.9643 28.6196 18.109 28.4889 18.291C28.3629 18.473 28.2999 18.6993 28.2999 18.97C28.2999 19.1893 28.3536 19.4017 28.4609 19.607C28.5729 19.8123 28.7503 19.9827 28.9929 20.118C29.2403 20.2533 29.5669 20.321 29.9729 20.321ZM35.4702 21V10.92H36.4992V15.463H42.0712V10.92H43.0932V21H42.0712V16.45H36.4992V21H35.4702ZM47.9452 21.189C47.4926 21.189 47.0959 21.119 46.7552 20.979C46.4192 20.839 46.1322 20.65 45.8942 20.412C45.6609 20.174 45.4719 19.9033 45.3272 19.6C45.1826 19.292 45.0776 18.9677 45.0122 18.627C44.9469 18.2817 44.9142 17.9387 44.9142 17.598V13.44H45.9502V17.297C45.9502 17.7123 45.9899 18.0973 46.0692 18.452C46.1486 18.8067 46.2746 19.117 46.4472 19.383C46.6246 19.6443 46.8509 19.8473 47.1262 19.992C47.4062 20.1367 47.7446 20.209 48.1412 20.209C48.5052 20.209 48.8249 20.146 49.1002 20.02C49.3802 19.894 49.6136 19.7143 49.8002 19.481C49.9916 19.243 50.1362 18.956 50.2342 18.62C50.3322 18.2793 50.3812 17.8967 50.3812 17.472L51.1092 17.633C51.1092 18.4077 50.9739 19.0587 50.7032 19.586C50.4326 20.1133 50.0592 20.5123 49.5832 20.783C49.1072 21.0537 48.5612 21.189 47.9452 21.189ZM50.4862 21V19.138H50.3812V13.44H51.4102V21H50.4862ZM56.7617 21.21C56.0664 21.21 55.4784 21.035 54.9977 20.685C54.5171 20.3303 54.1531 19.852 53.9057 19.25C53.6584 18.6433 53.5347 17.9643 53.5347 17.213C53.5347 16.4477 53.6584 15.7663 53.9057 15.169C54.1577 14.567 54.5264 14.0933 55.0117 13.748C55.4971 13.4027 56.0944 13.23 56.8037 13.23C57.4944 13.23 58.0871 13.405 58.5817 13.755C59.0764 14.105 59.4544 14.581 59.7157 15.183C59.9817 15.785 60.1147 16.4617 60.1147 17.213C60.1147 17.969 59.9817 18.648 59.7157 19.25C59.4497 19.852 59.0671 20.3303 58.5677 20.685C58.0684 21.035 57.4664 21.21 56.7617 21.21ZM53.3597 21V10.92H54.3957V15.309H54.2837V21H53.3597ZM56.6567 20.251C57.1841 20.251 57.6227 20.118 57.9727 19.852C58.3227 19.586 58.5841 19.2243 58.7567 18.767C58.9341 18.305 59.0227 17.787 59.0227 17.213C59.0227 16.6437 58.9364 16.1303 58.7637 15.673C58.5911 15.2157 58.3274 14.854 57.9727 14.588C57.6227 14.322 57.1771 14.189 56.6357 14.189C56.1084 14.189 55.6697 14.3173 55.3197 14.574C54.9744 14.8307 54.7154 15.1877 54.5427 15.645C54.3701 16.0977 54.2837 16.6203 54.2837 17.213C54.2837 17.7963 54.3701 18.319 54.5427 18.781C54.7154 19.2383 54.9767 19.5977 55.3267 19.859C55.6767 20.1203 56.1201 20.251 56.6567 20.251ZM64.3146 17.031V16.149H73.5546V17.031H64.3146ZM78.1742 21V13.44H84.1872V21H83.1582V14.427H79.2032V21H78.1742ZM89.5469 21.21C88.8515 21.21 88.2635 21.035 87.7829 20.685C87.3022 20.3303 86.9382 19.852 86.6909 19.25C86.4435 18.6433 86.3199 17.9643 86.3199 17.213C86.3199 16.4477 86.4435 15.7663 86.6909 15.169C86.9429 14.567 87.3115 14.0933 87.7969 13.748C88.2822 13.4027 88.8795 13.23 89.5889 13.23C90.2795 13.23 90.8722 13.405 91.3669 13.755C91.8615 14.105 92.2395 14.581 92.5009 15.183C92.7669 15.785 92.8999 16.4617 92.8999 17.213C92.8999 17.969 92.7669 18.648 92.5009 19.25C92.2349 19.852 91.8522 20.3303 91.3529 20.685C90.8535 21.035 90.2515 21.21 89.5469 21.21ZM86.1449 24.36V13.44H87.0689V19.131H87.1809V24.36H86.1449ZM89.4419 20.251C89.9692 20.251 90.4079 20.118 90.7579 19.852C91.1079 19.586 91.3692 19.2243 91.5419 18.767C91.7192 18.305 91.8079 17.787 91.8079 17.213C91.8079 16.6437 91.7215 16.1303 91.5489 15.673C91.3762 15.2157 91.1125 14.854 90.7579 14.588C90.4079 14.322 89.9622 14.189 89.4209 14.189C88.8935 14.189 88.4549 14.3173 88.1049 14.574C87.7595 14.8307 87.5005 15.1877 87.3279 15.645C87.1552 16.0977 87.0689 16.6203 87.0689 17.213C87.0689 17.7963 87.1552 18.319 87.3279 18.781C87.5005 19.2383 87.7619 19.5977 88.1119 19.859C88.4619 20.1203 88.9052 20.251 89.4419 20.251ZM97.594 21.21C96.8427 21.21 96.201 21.0397 95.669 20.699C95.137 20.3583 94.7287 19.887 94.444 19.285C94.1594 18.683 94.017 17.9923 94.017 17.213C94.017 16.4197 94.1617 15.7243 94.451 15.127C94.7404 14.5297 95.151 14.0653 95.683 13.734C96.2197 13.398 96.8567 13.23 97.594 13.23C98.35 13.23 98.994 13.4003 99.526 13.741C100.063 14.077 100.471 14.546 100.751 15.148C101.036 15.7453 101.178 16.4337 101.178 17.213C101.178 18.0063 101.036 18.704 100.751 19.306C100.466 19.9033 100.056 20.37 99.519 20.706C98.9824 21.042 98.3407 21.21 97.594 21.21ZM97.594 20.223C98.434 20.223 99.0594 19.9453 99.47 19.39C99.8807 18.83 100.086 18.1043 100.086 17.213C100.086 16.2983 99.8784 15.5703 99.463 15.029C99.0524 14.4877 98.4294 14.217 97.594 14.217C97.0294 14.217 96.5627 14.3453 96.194 14.602C95.83 14.854 95.557 15.2063 95.375 15.659C95.1977 16.107 95.109 16.625 95.109 17.213C95.109 18.123 95.319 18.8533 95.739 19.404C96.159 19.95 96.7774 20.223 97.594 20.223ZM102.715 21L102.722 13.44H103.758V17.08L107.132 13.44H108.504L104.962 17.22L108.966 21H107.468L103.758 17.36V21H102.715ZM111.831 21.21C111.261 21.21 110.783 21.1073 110.396 20.902C110.013 20.6967 109.726 20.4237 109.535 20.083C109.343 19.7423 109.248 19.3713 109.248 18.97C109.248 18.5593 109.329 18.2093 109.493 17.92C109.661 17.626 109.887 17.3857 110.172 17.199C110.461 17.0123 110.795 16.87 111.173 16.772C111.555 16.6787 111.978 16.597 112.44 16.527C112.906 16.4523 113.361 16.3893 113.805 16.338C114.253 16.282 114.645 16.2283 114.981 16.177L114.617 16.401C114.631 15.6543 114.486 15.1013 114.183 14.742C113.879 14.3827 113.352 14.203 112.601 14.203C112.083 14.203 111.644 14.3197 111.285 14.553C110.93 14.7863 110.68 15.155 110.535 15.659L109.535 15.365C109.707 14.6883 110.055 14.1633 110.578 13.79C111.1 13.4167 111.779 13.23 112.615 13.23C113.305 13.23 113.891 13.3607 114.372 13.622C114.857 13.8787 115.2 14.252 115.401 14.742C115.494 14.9613 115.555 15.2063 115.583 15.477C115.611 15.7477 115.625 16.023 115.625 16.303V21H114.708V19.103L114.974 19.215C114.717 19.8637 114.318 20.3583 113.777 20.699C113.235 21.0397 112.587 21.21 111.831 21.21ZM111.95 20.321C112.43 20.321 112.85 20.2347 113.21 20.062C113.569 19.8893 113.858 19.6537 114.078 19.355C114.297 19.0517 114.439 18.711 114.505 18.333C114.561 18.0903 114.591 17.8243 114.596 17.535C114.6 17.241 114.603 17.0217 114.603 16.877L114.995 17.08C114.645 17.1267 114.264 17.1733 113.854 17.22C113.448 17.2667 113.046 17.3203 112.65 17.381C112.258 17.4417 111.903 17.514 111.586 17.598C111.371 17.6587 111.163 17.745 110.963 17.857C110.762 17.9643 110.596 18.109 110.466 18.291C110.34 18.473 110.277 18.6993 110.277 18.97C110.277 19.1893 110.33 19.4017 110.438 19.607C110.55 19.8123 110.727 19.9827 110.97 20.118C111.217 20.2533 111.544 20.321 111.95 20.321ZM122.074 21V18.186C121.822 18.312 121.511 18.4217 121.143 18.515C120.774 18.6083 120.377 18.655 119.953 18.655C119.187 18.655 118.567 18.4847 118.091 18.144C117.615 17.8033 117.304 17.311 117.16 16.667C117.113 16.4757 117.08 16.2727 117.062 16.058C117.048 15.8433 117.038 15.6497 117.034 15.477C117.029 15.3043 117.027 15.1807 117.027 15.106V13.44H118.063V15.106C118.063 15.26 118.067 15.435 118.077 15.631C118.086 15.827 118.107 16.0183 118.14 16.205C118.233 16.7137 118.443 17.0987 118.77 17.36C119.101 17.6213 119.565 17.752 120.163 17.752C120.536 17.752 120.888 17.7053 121.22 17.612C121.556 17.514 121.84 17.3833 122.074 17.22V13.44H123.103V21H122.074ZM127.225 21.21C126.656 21.21 126.177 21.1073 125.79 20.902C125.407 20.6967 125.12 20.4237 124.929 20.083C124.738 19.7423 124.642 19.3713 124.642 18.97C124.642 18.5593 124.724 18.2093 124.887 17.92C125.055 17.626 125.281 17.3857 125.566 17.199C125.855 17.0123 126.189 16.87 126.567 16.772C126.95 16.6787 127.372 16.597 127.834 16.527C128.301 16.4523 128.756 16.3893 129.199 16.338C129.647 16.282 130.039 16.2283 130.375 16.177L130.011 16.401C130.025 15.6543 129.88 15.1013 129.577 14.742C129.274 14.3827 128.746 14.203 127.995 14.203C127.477 14.203 127.038 14.3197 126.679 14.553C126.324 14.7863 126.075 15.155 125.93 15.659L124.929 15.365C125.102 14.6883 125.449 14.1633 125.972 13.79C126.495 13.4167 127.174 13.23 128.009 13.23C128.7 13.23 129.285 13.3607 129.766 13.622C130.251 13.8787 130.594 14.252 130.795 14.742C130.888 14.9613 130.949 15.2063 130.977 15.477C131.005 15.7477 131.019 16.023 131.019 16.303V21H130.102V19.103L130.368 19.215C130.111 19.8637 129.712 20.3583 129.171 20.699C128.63 21.0397 127.981 21.21 127.225 21.21ZM127.344 20.321C127.825 20.321 128.245 20.2347 128.604 20.062C128.963 19.8893 129.253 19.6537 129.472 19.355C129.691 19.0517 129.834 18.711 129.899 18.333C129.955 18.0903 129.985 17.8243 129.99 17.535C129.995 17.241 129.997 17.0217 129.997 16.877L130.389 17.08C130.039 17.1267 129.659 17.1733 129.248 17.22C128.842 17.2667 128.441 17.3203 128.044 17.381C127.652 17.4417 127.297 17.514 126.98 17.598C126.765 17.6587 126.558 17.745 126.357 17.857C126.156 17.9643 125.991 18.109 125.86 18.291C125.734 18.473 125.671 18.6993 125.671 18.97C125.671 19.1893 125.725 19.4017 125.832 19.607C125.944 19.8123 126.121 19.9827 126.364 20.118C126.611 20.2533 126.938 20.321 127.344 20.321ZM135.977 12.544C135.646 12.544 135.343 12.4623 135.067 12.299C134.792 12.1357 134.573 11.9187 134.409 11.648C134.251 11.3727 134.171 11.0693 134.171 10.738H135.025C135.025 10.9993 135.119 11.2233 135.305 11.41C135.492 11.5967 135.716 11.69 135.977 11.69C136.243 11.69 136.467 11.5967 136.649 11.41C136.836 11.2233 136.929 10.9993 136.929 10.738H137.783C137.783 11.0693 137.702 11.3727 137.538 11.648C137.38 11.9187 137.163 12.1357 136.887 12.299C136.612 12.4623 136.309 12.544 135.977 12.544ZM138.847 13.44V21H137.846V15.113L133.702 21H132.834V13.44H133.835V19.278L137.986 13.44H138.847ZM146.751 21.21C145.99 21.21 145.346 21.0397 144.819 20.699C144.291 20.3583 143.89 19.8893 143.615 19.292C143.344 18.69 143.204 17.9993 143.195 17.22C143.204 16.4267 143.349 15.7313 143.629 15.134C143.909 14.532 144.312 14.0653 144.84 13.734C145.367 13.398 146.006 13.23 146.758 13.23C147.523 13.23 148.188 13.4167 148.753 13.79C149.322 14.1633 149.712 14.6743 149.922 15.323L148.914 15.645C148.736 15.1923 148.454 14.8423 148.067 14.595C147.684 14.343 147.245 14.217 146.751 14.217C146.195 14.217 145.736 14.3453 145.372 14.602C145.008 14.854 144.737 15.2063 144.56 15.659C144.382 16.1117 144.291 16.632 144.287 17.22C144.296 18.1253 144.506 18.8533 144.917 19.404C145.327 19.95 145.939 20.223 146.751 20.223C147.264 20.223 147.7 20.1063 148.06 19.873C148.424 19.635 148.699 19.2897 148.886 18.837L149.922 19.145C149.642 19.817 149.231 20.3303 148.69 20.685C148.148 21.035 147.502 21.21 146.751 21.21ZM151.36 21V13.44H154.475C154.633 13.44 154.825 13.4493 155.049 13.468C155.277 13.4867 155.49 13.5217 155.686 13.573C156.11 13.685 156.451 13.9137 156.708 14.259C156.969 14.6043 157.1 15.0197 157.1 15.505C157.1 15.7757 157.058 16.0183 156.974 16.233C156.894 16.443 156.78 16.625 156.631 16.779C156.561 16.8583 156.484 16.9283 156.4 16.989C156.316 17.045 156.234 17.0917 156.155 17.129C156.304 17.157 156.465 17.2223 156.638 17.325C156.908 17.4837 157.114 17.6983 157.254 17.969C157.394 18.235 157.464 18.5593 157.464 18.942C157.464 19.46 157.34 19.8823 157.093 20.209C156.845 20.5357 156.514 20.7597 156.099 20.881C155.912 20.9323 155.709 20.965 155.49 20.979C155.275 20.993 155.072 21 154.881 21H151.36ZM152.396 20.125H154.832C154.93 20.125 155.053 20.118 155.203 20.104C155.352 20.0853 155.485 20.062 155.602 20.034C155.877 19.964 156.078 19.824 156.204 19.614C156.334 19.3993 156.4 19.166 156.4 18.914C156.4 18.5827 156.302 18.312 156.106 18.102C155.914 17.8873 155.658 17.7567 155.336 17.71C155.228 17.6867 155.116 17.6727 155 17.668C154.883 17.6633 154.778 17.661 154.685 17.661H152.396V20.125ZM152.396 16.779H154.51C154.631 16.779 154.766 16.772 154.916 16.758C155.07 16.7393 155.203 16.709 155.315 16.667C155.557 16.583 155.735 16.4383 155.847 16.233C155.963 16.0277 156.022 15.8037 156.022 15.561C156.022 15.295 155.959 15.0617 155.833 14.861C155.711 14.6603 155.527 14.5203 155.28 14.441C155.112 14.3803 154.93 14.3453 154.734 14.336C154.542 14.3267 154.421 14.322 154.37 14.322H152.396V16.779ZM162.016 21.21C161.265 21.21 160.623 21.0397 160.091 20.699C159.559 20.3583 159.151 19.887 158.866 19.285C158.581 18.683 158.439 17.9923 158.439 17.213C158.439 16.4197 158.584 15.7243 158.873 15.127C159.162 14.5297 159.573 14.0653 160.105 13.734C160.642 13.398 161.279 13.23 162.016 13.23C162.772 13.23 163.416 13.4003 163.948 13.741C164.485 14.077 164.893 14.546 165.173 15.148C165.458 15.7453 165.6 16.4337 165.6 17.213C165.6 18.0063 165.458 18.704 165.173 19.306C164.888 19.9033 164.478 20.37 163.941 20.706C163.404 21.042 162.763 21.21 162.016 21.21ZM162.016 20.223C162.856 20.223 163.481 19.9453 163.892 19.39C164.303 18.83 164.508 18.1043 164.508 17.213C164.508 16.2983 164.3 15.5703 163.885 15.029C163.474 14.4877 162.851 14.217 162.016 14.217C161.451 14.217 160.985 14.3453 160.616 14.602C160.252 14.854 159.979 15.2063 159.797 15.659C159.62 16.107 159.531 16.625 159.531 17.213C159.531 18.123 159.741 18.8533 160.161 19.404C160.581 19.95 161.199 20.223 162.016 20.223ZM173.15 13.44V21H172.149V15.113L168.005 21H167.137V13.44H168.138V19.278L172.289 13.44H173.15ZM177.911 21V13.44H178.94V16.723H183.203V13.44H184.232V21H183.203V17.71H178.94V21H177.911ZM188.352 21.21C187.783 21.21 187.304 21.1073 186.917 20.902C186.534 20.6967 186.247 20.4237 186.056 20.083C185.865 19.7423 185.769 19.3713 185.769 18.97C185.769 18.5593 185.851 18.2093 186.014 17.92C186.182 17.626 186.408 17.3857 186.693 17.199C186.982 17.0123 187.316 16.87 187.694 16.772C188.077 16.6787 188.499 16.597 188.961 16.527C189.428 16.4523 189.883 16.3893 190.326 16.338C190.774 16.282 191.166 16.2283 191.502 16.177L191.138 16.401C191.152 15.6543 191.007 15.1013 190.704 14.742C190.401 14.3827 189.873 14.203 189.122 14.203C188.604 14.203 188.165 14.3197 187.806 14.553C187.451 14.7863 187.202 15.155 187.057 15.659L186.056 15.365C186.229 14.6883 186.576 14.1633 187.099 13.79C187.622 13.4167 188.301 13.23 189.136 13.23C189.827 13.23 190.412 13.3607 190.893 13.622C191.378 13.8787 191.721 14.252 191.922 14.742C192.015 14.9613 192.076 15.2063 192.104 15.477C192.132 15.7477 192.146 16.023 192.146 16.303V21H191.229V19.103L191.495 19.215C191.238 19.8637 190.839 20.3583 190.298 20.699C189.757 21.0397 189.108 21.21 188.352 21.21ZM188.471 20.321C188.952 20.321 189.372 20.2347 189.731 20.062C190.09 19.8893 190.38 19.6537 190.599 19.355C190.818 19.0517 190.961 18.711 191.026 18.333C191.082 18.0903 191.112 17.8243 191.117 17.535C191.122 17.241 191.124 17.0217 191.124 16.877L191.516 17.08C191.166 17.1267 190.786 17.1733 190.375 17.22C189.969 17.2667 189.568 17.3203 189.171 17.381C188.779 17.4417 188.424 17.514 188.107 17.598C187.892 17.6587 187.685 17.745 187.484 17.857C187.283 17.9643 187.118 18.109 186.987 18.291C186.861 18.473 186.798 18.6993 186.798 18.97C186.798 19.1893 186.852 19.4017 186.959 19.607C187.071 19.8123 187.248 19.9827 187.491 20.118C187.738 20.2533 188.065 20.321 188.471 20.321ZM193.961 21V13.44H197.076C197.235 13.44 197.426 13.4493 197.65 13.468C197.879 13.4867 198.091 13.5217 198.287 13.573C198.712 13.685 199.053 13.9137 199.309 14.259C199.571 14.6043 199.701 15.0197 199.701 15.505C199.701 15.7757 199.659 16.0183 199.575 16.233C199.496 16.443 199.382 16.625 199.232 16.779C199.162 16.8583 199.085 16.9283 199.001 16.989C198.917 17.045 198.836 17.0917 198.756 17.129C198.906 17.157 199.067 17.2223 199.239 17.325C199.51 17.4837 199.715 17.6983 199.855 17.969C199.995 18.235 200.065 18.5593 200.065 18.942C200.065 19.46 199.942 19.8823 199.694 20.209C199.447 20.5357 199.116 20.7597 198.7 20.881C198.514 20.9323 198.311 20.965 198.091 20.979C197.877 20.993 197.674 21 197.482 21H193.961ZM194.997 20.125H197.433C197.531 20.125 197.655 20.118 197.804 20.104C197.954 20.0853 198.087 20.062 198.203 20.034C198.479 19.964 198.679 19.824 198.805 19.614C198.936 19.3993 199.001 19.166 199.001 18.914C199.001 18.5827 198.903 18.312 198.707 18.102C198.516 17.8873 198.259 17.7567 197.937 17.71C197.83 17.6867 197.718 17.6727 197.601 17.668C197.485 17.6633 197.38 17.661 197.286 17.661H194.997V20.125ZM194.997 16.779H197.111C197.233 16.779 197.368 16.772 197.517 16.758C197.671 16.7393 197.804 16.709 197.916 16.667C198.159 16.583 198.336 16.4383 198.448 16.233C198.565 16.0277 198.623 15.8037 198.623 15.561C198.623 15.295 198.56 15.0617 198.434 14.861C198.313 14.6603 198.129 14.5203 197.881 14.441C197.713 14.3803 197.531 14.3453 197.335 14.336C197.144 14.3267 197.023 14.322 196.971 14.322H194.997V16.779ZM201.467 21L201.453 13.44H202.489V16.289H203.805C204.025 16.289 204.239 16.2937 204.449 16.303C204.659 16.3123 204.848 16.331 205.016 16.359C205.39 16.4337 205.721 16.5597 206.01 16.737C206.3 16.9143 206.528 17.1593 206.696 17.472C206.864 17.78 206.948 18.1697 206.948 18.641C206.948 19.2897 206.78 19.8007 206.444 20.174C206.108 20.5473 205.686 20.79 205.177 20.902C204.986 20.944 204.778 20.972 204.554 20.986C204.33 20.9953 204.111 21 203.896 21H201.467ZM202.489 20.118H203.854C204.008 20.118 204.183 20.1133 204.379 20.104C204.575 20.0947 204.748 20.069 204.897 20.027C205.149 19.957 205.376 19.817 205.576 19.607C205.782 19.3923 205.884 19.0703 205.884 18.641C205.884 18.2163 205.786 17.8967 205.59 17.682C205.394 17.4627 205.133 17.318 204.806 17.248C204.657 17.2153 204.498 17.1943 204.33 17.185C204.167 17.1757 204.008 17.171 203.854 17.171H202.489V20.118ZM207.851 21V13.44H208.88V21H207.851ZM210.832 21L210.839 13.44H211.875V17.08L215.249 13.44H216.621L213.079 17.22L217.083 21H215.585L211.875 17.36V21H210.832ZM223.791 13.44V21H222.79V15.113L218.646 21H217.778V13.44H218.779V19.278L222.93 13.44H223.791Z" fill="white"/>
<rect width="237" height="25" rx="12.5" fill="#008616"/>
<path d="M15.381 18V13.779L12 7.92H13.19L15.899 12.603L18.594 7.92H19.784L16.417 13.779V18H15.381ZM22.8372 18.21C22.0999 18.21 21.4605 18.0467 20.9192 17.72C20.3825 17.3933 19.9649 16.9337 19.6662 16.341C19.3675 15.7483 19.2182 15.053 19.2182 14.255C19.2182 13.429 19.3652 12.715 19.6592 12.113C19.9532 11.511 20.3662 11.0467 20.8982 10.72C21.4349 10.3933 22.0672 10.23 22.7952 10.23C23.5419 10.23 24.1789 10.4027 24.7062 10.748C25.2335 11.0887 25.6325 11.5787 25.9032 12.218C26.1739 12.8573 26.2975 13.6203 26.2742 14.507H25.2242V14.143C25.2055 13.163 24.9932 12.4233 24.5872 11.924C24.1859 11.4247 23.5979 11.175 22.8232 11.175C22.0112 11.175 21.3882 11.4387 20.9542 11.966C20.5249 12.4933 20.3102 13.2447 20.3102 14.22C20.3102 15.172 20.5249 15.9117 20.9542 16.439C21.3882 16.9617 22.0019 17.223 22.7952 17.223C23.3365 17.223 23.8079 17.0993 24.2092 16.852C24.6152 16.6 24.9349 16.2383 25.1682 15.767L26.1272 16.138C25.8285 16.796 25.3875 17.307 24.8042 17.671C24.2255 18.0303 23.5699 18.21 22.8372 18.21ZM19.9462 14.507V13.646H25.7212V14.507H19.9462ZM29.8539 18.21C29.2846 18.21 28.8063 18.1073 28.4189 17.902C28.0363 17.6967 27.7493 17.4237 27.5579 17.083C27.3666 16.7423 27.2709 16.3713 27.2709 15.97C27.2709 15.5593 27.3526 15.2093 27.5159 14.92C27.6839 14.626 27.9103 14.3857 28.1949 14.199C28.4843 14.0123 28.8179 13.87 29.1959 13.772C29.5786 13.6787 30.0009 13.597 30.4629 13.527C30.9296 13.4523 31.3846 13.3893 31.8279 13.338C32.2759 13.282 32.6679 13.2283 33.0039 13.177L32.6399 13.401C32.6539 12.6543 32.5093 12.1013 32.2059 11.742C31.9026 11.3827 31.3753 11.203 30.6239 11.203C30.1059 11.203 29.6673 11.3197 29.3079 11.553C28.9533 11.7863 28.7036 12.155 28.5589 12.659L27.5579 12.365C27.7306 11.6883 28.0783 11.1633 28.6009 10.79C29.1236 10.4167 29.8026 10.23 30.6379 10.23C31.3286 10.23 31.9143 10.3607 32.3949 10.622C32.8803 10.8787 33.2233 11.252 33.4239 11.742C33.5173 11.9613 33.5779 12.2063 33.6059 12.477C33.6339 12.7477 33.6479 13.023 33.6479 13.303V18H32.7309V16.103L32.9969 16.215C32.7403 16.8637 32.3413 17.3583 31.7999 17.699C31.2586 18.0397 30.6099 18.21 29.8539 18.21ZM29.9729 17.321C30.4536 17.321 30.8736 17.2347 31.2329 17.062C31.5923 16.8893 31.8816 16.6537 32.1009 16.355C32.3203 16.0517 32.4626 15.711 32.5279 15.333C32.5839 15.0903 32.6143 14.8243 32.6189 14.535C32.6236 14.241 32.6259 14.0217 32.6259 13.877L33.0179 14.08C32.6679 14.1267 32.2876 14.1733 31.8769 14.22C31.4709 14.2667 31.0696 14.3203 30.6729 14.381C30.2809 14.4417 29.9263 14.514 29.6089 14.598C29.3943 14.6587 29.1866 14.745 28.9859 14.857C28.7853 14.9643 28.6196 15.109 28.4889 15.291C28.3629 15.473 28.2999 15.6993 28.2999 15.97C28.2999 16.1893 28.3536 16.4017 28.4609 16.607C28.5729 16.8123 28.7503 16.9827 28.9929 17.118C29.2403 17.2533 29.5669 17.321 29.9729 17.321ZM35.4702 18V7.92H36.4992V12.463H42.0712V7.92H43.0932V18H42.0712V13.45H36.4992V18H35.4702ZM47.9452 18.189C47.4926 18.189 47.0959 18.119 46.7552 17.979C46.4192 17.839 46.1322 17.65 45.8942 17.412C45.6609 17.174 45.4719 16.9033 45.3272 16.6C45.1826 16.292 45.0776 15.9677 45.0122 15.627C44.9469 15.2817 44.9142 14.9387 44.9142 14.598V10.44H45.9502V14.297C45.9502 14.7123 45.9899 15.0973 46.0692 15.452C46.1486 15.8067 46.2746 16.117 46.4472 16.383C46.6246 16.6443 46.8509 16.8473 47.1262 16.992C47.4062 17.1367 47.7446 17.209 48.1412 17.209C48.5052 17.209 48.8249 17.146 49.1002 17.02C49.3802 16.894 49.6136 16.7143 49.8002 16.481C49.9916 16.243 50.1362 15.956 50.2342 15.62C50.3322 15.2793 50.3812 14.8967 50.3812 14.472L51.1092 14.633C51.1092 15.4077 50.9739 16.0587 50.7032 16.586C50.4326 17.1133 50.0592 17.5123 49.5832 17.783C49.1072 18.0537 48.5612 18.189 47.9452 18.189ZM50.4862 18V16.138H50.3812V10.44H51.4102V18H50.4862ZM56.7617 18.21C56.0664 18.21 55.4784 18.035 54.9977 17.685C54.5171 17.3303 54.1531 16.852 53.9057 16.25C53.6584 15.6433 53.5347 14.9643 53.5347 14.213C53.5347 13.4477 53.6584 12.7663 53.9057 12.169C54.1577 11.567 54.5264 11.0933 55.0117 10.748C55.4971 10.4027 56.0944 10.23 56.8037 10.23C57.4944 10.23 58.0871 10.405 58.5817 10.755C59.0764 11.105 59.4544 11.581 59.7157 12.183C59.9817 12.785 60.1147 13.4617 60.1147 14.213C60.1147 14.969 59.9817 15.648 59.7157 16.25C59.4497 16.852 59.0671 17.3303 58.5677 17.685C58.0684 18.035 57.4664 18.21 56.7617 18.21ZM53.3597 18V7.92H54.3957V12.309H54.2837V18H53.3597ZM56.6567 17.251C57.1841 17.251 57.6227 17.118 57.9727 16.852C58.3227 16.586 58.5841 16.2243 58.7567 15.767C58.9341 15.305 59.0227 14.787 59.0227 14.213C59.0227 13.6437 58.9364 13.1303 58.7637 12.673C58.5911 12.2157 58.3274 11.854 57.9727 11.588C57.6227 11.322 57.1771 11.189 56.6357 11.189C56.1084 11.189 55.6697 11.3173 55.3197 11.574C54.9744 11.8307 54.7154 12.1877 54.5427 12.645C54.3701 13.0977 54.2837 13.6203 54.2837 14.213C54.2837 14.7963 54.3701 15.319 54.5427 15.781C54.7154 16.2383 54.9767 16.5977 55.3267 16.859C55.6767 17.1203 56.1201 17.251 56.6567 17.251ZM64.3146 14.031V13.149H73.5546V14.031H64.3146ZM78.1742 18V10.44H84.1872V18H83.1582V11.427H79.2032V18H78.1742ZM89.5469 18.21C88.8515 18.21 88.2635 18.035 87.7829 17.685C87.3022 17.3303 86.9382 16.852 86.6909 16.25C86.4435 15.6433 86.3199 14.9643 86.3199 14.213C86.3199 13.4477 86.4435 12.7663 86.6909 12.169C86.9429 11.567 87.3115 11.0933 87.7969 10.748C88.2822 10.4027 88.8795 10.23 89.5889 10.23C90.2795 10.23 90.8722 10.405 91.3669 10.755C91.8615 11.105 92.2395 11.581 92.5009 12.183C92.7669 12.785 92.8999 13.4617 92.8999 14.213C92.8999 14.969 92.7669 15.648 92.5009 16.25C92.2349 16.852 91.8522 17.3303 91.3529 17.685C90.8535 18.035 90.2515 18.21 89.5469 18.21ZM86.1449 21.36V10.44H87.0689V16.131H87.1809V21.36H86.1449ZM89.4419 17.251C89.9692 17.251 90.4079 17.118 90.7579 16.852C91.1079 16.586 91.3692 16.2243 91.5419 15.767C91.7192 15.305 91.8079 14.787 91.8079 14.213C91.8079 13.6437 91.7215 13.1303 91.5489 12.673C91.3762 12.2157 91.1125 11.854 90.7579 11.588C90.4079 11.322 89.9622 11.189 89.4209 11.189C88.8935 11.189 88.4549 11.3173 88.1049 11.574C87.7595 11.8307 87.5005 12.1877 87.3279 12.645C87.1552 13.0977 87.0689 13.6203 87.0689 14.213C87.0689 14.7963 87.1552 15.319 87.3279 15.781C87.5005 16.2383 87.7619 16.5977 88.1119 16.859C88.4619 17.1203 88.9052 17.251 89.4419 17.251ZM97.594 18.21C96.8427 18.21 96.201 18.0397 95.669 17.699C95.137 17.3583 94.7287 16.887 94.444 16.285C94.1594 15.683 94.017 14.9923 94.017 14.213C94.017 13.4197 94.1617 12.7243 94.451 12.127C94.7404 11.5297 95.151 11.0653 95.683 10.734C96.2197 10.398 96.8567 10.23 97.594 10.23C98.35 10.23 98.994 10.4003 99.526 10.741C100.063 11.077 100.471 11.546 100.751 12.148C101.036 12.7453 101.178 13.4337 101.178 14.213C101.178 15.0063 101.036 15.704 100.751 16.306C100.466 16.9033 100.056 17.37 99.519 17.706C98.9824 18.042 98.3407 18.21 97.594 18.21ZM97.594 17.223C98.434 17.223 99.0594 16.9453 99.47 16.39C99.8807 15.83 100.086 15.1043 100.086 14.213C100.086 13.2983 99.8784 12.5703 99.463 12.029C99.0524 11.4877 98.4294 11.217 97.594 11.217C97.0294 11.217 96.5627 11.3453 96.194 11.602C95.83 11.854 95.557 12.2063 95.375 12.659C95.1977 13.107 95.109 13.625 95.109 14.213C95.109 15.123 95.319 15.8533 95.739 16.404C96.159 16.95 96.7774 17.223 97.594 17.223ZM102.715 18L102.722 10.44H103.758V14.08L107.132 10.44H108.504L104.962 14.22L108.966 18H107.468L103.758 14.36V18H102.715ZM111.831 18.21C111.261 18.21 110.783 18.1073 110.396 17.902C110.013 17.6967 109.726 17.4237 109.535 17.083C109.343 16.7423 109.248 16.3713 109.248 15.97C109.248 15.5593 109.329 15.2093 109.493 14.92C109.661 14.626 109.887 14.3857 110.172 14.199C110.461 14.0123 110.795 13.87 111.173 13.772C111.555 13.6787 111.978 13.597 112.44 13.527C112.906 13.4523 113.361 13.3893 113.805 13.338C114.253 13.282 114.645 13.2283 114.981 13.177L114.617 13.401C114.631 12.6543 114.486 12.1013 114.183 11.742C113.879 11.3827 113.352 11.203 112.601 11.203C112.083 11.203 111.644 11.3197 111.285 11.553C110.93 11.7863 110.68 12.155 110.535 12.659L109.535 12.365C109.707 11.6883 110.055 11.1633 110.578 10.79C111.1 10.4167 111.779 10.23 112.615 10.23C113.305 10.23 113.891 10.3607 114.372 10.622C114.857 10.8787 115.2 11.252 115.401 11.742C115.494 11.9613 115.555 12.2063 115.583 12.477C115.611 12.7477 115.625 13.023 115.625 13.303V18H114.708V16.103L114.974 16.215C114.717 16.8637 114.318 17.3583 113.777 17.699C113.235 18.0397 112.587 18.21 111.831 18.21ZM111.95 17.321C112.43 17.321 112.85 17.2347 113.21 17.062C113.569 16.8893 113.858 16.6537 114.078 16.355C114.297 16.0517 114.439 15.711 114.505 15.333C114.561 15.0903 114.591 14.8243 114.596 14.535C114.6 14.241 114.603 14.0217 114.603 13.877L114.995 14.08C114.645 14.1267 114.264 14.1733 113.854 14.22C113.448 14.2667 113.046 14.3203 112.65 14.381C112.258 14.4417 111.903 14.514 111.586 14.598C111.371 14.6587 111.163 14.745 110.963 14.857C110.762 14.9643 110.596 15.109 110.466 15.291C110.34 15.473 110.277 15.6993 110.277 15.97C110.277 16.1893 110.33 16.4017 110.438 16.607C110.55 16.8123 110.727 16.9827 110.97 17.118C111.217 17.2533 111.544 17.321 111.95 17.321ZM122.074 18V15.186C121.822 15.312 121.511 15.4217 121.143 15.515C120.774 15.6083 120.377 15.655 119.953 15.655C119.187 15.655 118.567 15.4847 118.091 15.144C117.615 14.8033 117.304 14.311 117.16 13.667C117.113 13.4757 117.08 13.2727 117.062 13.058C117.048 12.8433 117.038 12.6497 117.034 12.477C117.029 12.3043 117.027 12.1807 117.027 12.106V10.44H118.063V12.106C118.063 12.26 118.067 12.435 118.077 12.631C118.086 12.827 118.107 13.0183 118.14 13.205C118.233 13.7137 118.443 14.0987 118.77 14.36C119.101 14.6213 119.565 14.752 120.163 14.752C120.536 14.752 120.888 14.7053 121.22 14.612C121.556 14.514 121.84 14.3833 122.074 14.22V10.44H123.103V18H122.074ZM127.225 18.21C126.656 18.21 126.177 18.1073 125.79 17.902C125.407 17.6967 125.12 17.4237 124.929 17.083C124.738 16.7423 124.642 16.3713 124.642 15.97C124.642 15.5593 124.724 15.2093 124.887 14.92C125.055 14.626 125.281 14.3857 125.566 14.199C125.855 14.0123 126.189 13.87 126.567 13.772C126.95 13.6787 127.372 13.597 127.834 13.527C128.301 13.4523 128.756 13.3893 129.199 13.338C129.647 13.282 130.039 13.2283 130.375 13.177L130.011 13.401C130.025 12.6543 129.88 12.1013 129.577 11.742C129.274 11.3827 128.746 11.203 127.995 11.203C127.477 11.203 127.038 11.3197 126.679 11.553C126.324 11.7863 126.075 12.155 125.93 12.659L124.929 12.365C125.102 11.6883 125.449 11.1633 125.972 10.79C126.495 10.4167 127.174 10.23 128.009 10.23C128.7 10.23 129.285 10.3607 129.766 10.622C130.251 10.8787 130.594 11.252 130.795 11.742C130.888 11.9613 130.949 12.2063 130.977 12.477C131.005 12.7477 131.019 13.023 131.019 13.303V18H130.102V16.103L130.368 16.215C130.111 16.8637 129.712 17.3583 129.171 17.699C128.63 18.0397 127.981 18.21 127.225 18.21ZM127.344 17.321C127.825 17.321 128.245 17.2347 128.604 17.062C128.963 16.8893 129.253 16.6537 129.472 16.355C129.691 16.0517 129.834 15.711 129.899 15.333C129.955 15.0903 129.985 14.8243 129.99 14.535C129.995 14.241 129.997 14.0217 129.997 13.877L130.389 14.08C130.039 14.1267 129.659 14.1733 129.248 14.22C128.842 14.2667 128.441 14.3203 128.044 14.381C127.652 14.4417 127.297 14.514 126.98 14.598C126.765 14.6587 126.558 14.745 126.357 14.857C126.156 14.9643 125.991 15.109 125.86 15.291C125.734 15.473 125.671 15.6993 125.671 15.97C125.671 16.1893 125.725 16.4017 125.832 16.607C125.944 16.8123 126.121 16.9827 126.364 17.118C126.611 17.2533 126.938 17.321 127.344 17.321ZM135.977 9.544C135.646 9.544 135.343 9.46233 135.067 9.299C134.792 9.13567 134.573 8.91867 134.409 8.648C134.251 8.37267 134.171 8.06933 134.171 7.738H135.025C135.025 7.99933 135.119 8.22333 135.305 8.41C135.492 8.59667 135.716 8.69 135.977 8.69C136.243 8.69 136.467 8.59667 136.649 8.41C136.836 8.22333 136.929 7.99933 136.929 7.738H137.783C137.783 8.06933 137.702 8.37267 137.538 8.648C137.38 8.91867 137.163 9.13567 136.887 9.299C136.612 9.46233 136.309 9.544 135.977 9.544ZM138.847 10.44V18H137.846V12.113L133.702 18H132.834V10.44H133.835V16.278L137.986 10.44H138.847ZM146.751 18.21C145.99 18.21 145.346 18.0397 144.819 17.699C144.291 17.3583 143.89 16.8893 143.615 16.292C143.344 15.69 143.204 14.9993 143.195 14.22C143.204 13.4267 143.349 12.7313 143.629 12.134C143.909 11.532 144.312 11.0653 144.84 10.734C145.367 10.398 146.006 10.23 146.758 10.23C147.523 10.23 148.188 10.4167 148.753 10.79C149.322 11.1633 149.712 11.6743 149.922 12.323L148.914 12.645C148.736 12.1923 148.454 11.8423 148.067 11.595C147.684 11.343 147.245 11.217 146.751 11.217C146.195 11.217 145.736 11.3453 145.372 11.602C145.008 11.854 144.737 12.2063 144.56 12.659C144.382 13.1117 144.291 13.632 144.287 14.22C144.296 15.1253 144.506 15.8533 144.917 16.404C145.327 16.95 145.939 17.223 146.751 17.223C147.264 17.223 147.7 17.1063 148.06 16.873C148.424 16.635 148.699 16.2897 148.886 15.837L149.922 16.145C149.642 16.817 149.231 17.3303 148.69 17.685C148.148 18.035 147.502 18.21 146.751 18.21ZM151.36 18V10.44H154.475C154.633 10.44 154.825 10.4493 155.049 10.468C155.277 10.4867 155.49 10.5217 155.686 10.573C156.11 10.685 156.451 10.9137 156.708 11.259C156.969 11.6043 157.1 12.0197 157.1 12.505C157.1 12.7757 157.058 13.0183 156.974 13.233C156.894 13.443 156.78 13.625 156.631 13.779C156.561 13.8583 156.484 13.9283 156.4 13.989C156.316 14.045 156.234 14.0917 156.155 14.129C156.304 14.157 156.465 14.2223 156.638 14.325C156.908 14.4837 157.114 14.6983 157.254 14.969C157.394 15.235 157.464 15.5593 157.464 15.942C157.464 16.46 157.34 16.8823 157.093 17.209C156.845 17.5357 156.514 17.7597 156.099 17.881C155.912 17.9323 155.709 17.965 155.49 17.979C155.275 17.993 155.072 18 154.881 18H151.36ZM152.396 17.125H154.832C154.93 17.125 155.053 17.118 155.203 17.104C155.352 17.0853 155.485 17.062 155.602 17.034C155.877 16.964 156.078 16.824 156.204 16.614C156.334 16.3993 156.4 16.166 156.4 15.914C156.4 15.5827 156.302 15.312 156.106 15.102C155.914 14.8873 155.658 14.7567 155.336 14.71C155.228 14.6867 155.116 14.6727 155 14.668C154.883 14.6633 154.778 14.661 154.685 14.661H152.396V17.125ZM152.396 13.779H154.51C154.631 13.779 154.766 13.772 154.916 13.758C155.07 13.7393 155.203 13.709 155.315 13.667C155.557 13.583 155.735 13.4383 155.847 13.233C155.963 13.0277 156.022 12.8037 156.022 12.561C156.022 12.295 155.959 12.0617 155.833 11.861C155.711 11.6603 155.527 11.5203 155.28 11.441C155.112 11.3803 154.93 11.3453 154.734 11.336C154.542 11.3267 154.421 11.322 154.37 11.322H152.396V13.779ZM162.016 18.21C161.265 18.21 160.623 18.0397 160.091 17.699C159.559 17.3583 159.151 16.887 158.866 16.285C158.581 15.683 158.439 14.9923 158.439 14.213C158.439 13.4197 158.584 12.7243 158.873 12.127C159.162 11.5297 159.573 11.0653 160.105 10.734C160.642 10.398 161.279 10.23 162.016 10.23C162.772 10.23 163.416 10.4003 163.948 10.741C164.485 11.077 164.893 11.546 165.173 12.148C165.458 12.7453 165.6 13.4337 165.6 14.213C165.6 15.0063 165.458 15.704 165.173 16.306C164.888 16.9033 164.478 17.37 163.941 17.706C163.404 18.042 162.763 18.21 162.016 18.21ZM162.016 17.223C162.856 17.223 163.481 16.9453 163.892 16.39C164.303 15.83 164.508 15.1043 164.508 14.213C164.508 13.2983 164.3 12.5703 163.885 12.029C163.474 11.4877 162.851 11.217 162.016 11.217C161.451 11.217 160.985 11.3453 160.616 11.602C160.252 11.854 159.979 12.2063 159.797 12.659C159.62 13.107 159.531 13.625 159.531 14.213C159.531 15.123 159.741 15.8533 160.161 16.404C160.581 16.95 161.199 17.223 162.016 17.223ZM173.15 10.44V18H172.149V12.113L168.005 18H167.137V10.44H168.138V16.278L172.289 10.44H173.15ZM177.911 18V10.44H178.94V13.723H183.203V10.44H184.232V18H183.203V14.71H178.94V18H177.911ZM188.352 18.21C187.783 18.21 187.304 18.1073 186.917 17.902C186.534 17.6967 186.247 17.4237 186.056 17.083C185.865 16.7423 185.769 16.3713 185.769 15.97C185.769 15.5593 185.851 15.2093 186.014 14.92C186.182 14.626 186.408 14.3857 186.693 14.199C186.982 14.0123 187.316 13.87 187.694 13.772C188.077 13.6787 188.499 13.597 188.961 13.527C189.428 13.4523 189.883 13.3893 190.326 13.338C190.774 13.282 191.166 13.2283 191.502 13.177L191.138 13.401C191.152 12.6543 191.007 12.1013 190.704 11.742C190.401 11.3827 189.873 11.203 189.122 11.203C188.604 11.203 188.165 11.3197 187.806 11.553C187.451 11.7863 187.202 12.155 187.057 12.659L186.056 12.365C186.229 11.6883 186.576 11.1633 187.099 10.79C187.622 10.4167 188.301 10.23 189.136 10.23C189.827 10.23 190.412 10.3607 190.893 10.622C191.378 10.8787 191.721 11.252 191.922 11.742C192.015 11.9613 192.076 12.2063 192.104 12.477C192.132 12.7477 192.146 13.023 192.146 13.303V18H191.229V16.103L191.495 16.215C191.238 16.8637 190.839 17.3583 190.298 17.699C189.757 18.0397 189.108 18.21 188.352 18.21ZM188.471 17.321C188.952 17.321 189.372 17.2347 189.731 17.062C190.09 16.8893 190.38 16.6537 190.599 16.355C190.818 16.0517 190.961 15.711 191.026 15.333C191.082 15.0903 191.112 14.8243 191.117 14.535C191.122 14.241 191.124 14.0217 191.124 13.877L191.516 14.08C191.166 14.1267 190.786 14.1733 190.375 14.22C189.969 14.2667 189.568 14.3203 189.171 14.381C188.779 14.4417 188.424 14.514 188.107 14.598C187.892 14.6587 187.685 14.745 187.484 14.857C187.283 14.9643 187.118 15.109 186.987 15.291C186.861 15.473 186.798 15.6993 186.798 15.97C186.798 16.1893 186.852 16.4017 186.959 16.607C187.071 16.8123 187.248 16.9827 187.491 17.118C187.738 17.2533 188.065 17.321 188.471 17.321ZM193.961 18V10.44H197.076C197.235 10.44 197.426 10.4493 197.65 10.468C197.879 10.4867 198.091 10.5217 198.287 10.573C198.712 10.685 199.053 10.9137 199.309 11.259C199.571 11.6043 199.701 12.0197 199.701 12.505C199.701 12.7757 199.659 13.0183 199.575 13.233C199.496 13.443 199.382 13.625 199.232 13.779C199.162 13.8583 199.085 13.9283 199.001 13.989C198.917 14.045 198.836 14.0917 198.756 14.129C198.906 14.157 199.067 14.2223 199.239 14.325C199.51 14.4837 199.715 14.6983 199.855 14.969C199.995 15.235 200.065 15.5593 200.065 15.942C200.065 16.46 199.942 16.8823 199.694 17.209C199.447 17.5357 199.116 17.7597 198.7 17.881C198.514 17.9323 198.311 17.965 198.091 17.979C197.877 17.993 197.674 18 197.482 18H193.961ZM194.997 17.125H197.433C197.531 17.125 197.655 17.118 197.804 17.104C197.954 17.0853 198.087 17.062 198.203 17.034C198.479 16.964 198.679 16.824 198.805 16.614C198.936 16.3993 199.001 16.166 199.001 15.914C199.001 15.5827 198.903 15.312 198.707 15.102C198.516 14.8873 198.259 14.7567 197.937 14.71C197.83 14.6867 197.718 14.6727 197.601 14.668C197.485 14.6633 197.38 14.661 197.286 14.661H194.997V17.125ZM194.997 13.779H197.111C197.233 13.779 197.368 13.772 197.517 13.758C197.671 13.7393 197.804 13.709 197.916 13.667C198.159 13.583 198.336 13.4383 198.448 13.233C198.565 13.0277 198.623 12.8037 198.623 12.561C198.623 12.295 198.56 12.0617 198.434 11.861C198.313 11.6603 198.129 11.5203 197.881 11.441C197.713 11.3803 197.531 11.3453 197.335 11.336C197.144 11.3267 197.023 11.322 196.971 11.322H194.997V13.779ZM201.467 18L201.453 10.44H202.489V13.289H203.805C204.025 13.289 204.239 13.2937 204.449 13.303C204.659 13.3123 204.848 13.331 205.016 13.359C205.39 13.4337 205.721 13.5597 206.01 13.737C206.3 13.9143 206.528 14.1593 206.696 14.472C206.864 14.78 206.948 15.1697 206.948 15.641C206.948 16.2897 206.78 16.8007 206.444 17.174C206.108 17.5473 205.686 17.79 205.177 17.902C204.986 17.944 204.778 17.972 204.554 17.986C204.33 17.9953 204.111 18 203.896 18H201.467ZM202.489 17.118H203.854C204.008 17.118 204.183 17.1133 204.379 17.104C204.575 17.0947 204.748 17.069 204.897 17.027C205.149 16.957 205.376 16.817 205.576 16.607C205.782 16.3923 205.884 16.0703 205.884 15.641C205.884 15.2163 205.786 14.8967 205.59 14.682C205.394 14.4627 205.133 14.318 204.806 14.248C204.657 14.2153 204.498 14.1943 204.33 14.185C204.167 14.1757 204.008 14.171 203.854 14.171H202.489V17.118ZM207.851 18V10.44H208.88V18H207.851ZM210.832 18L210.839 10.44H211.875V14.08L215.249 10.44H216.621L213.079 14.22L217.083 18H215.585L211.875 14.36V18H210.832ZM223.791 10.44V18H222.79V12.113L218.646 18H217.778V10.44H218.779V16.278L222.93 10.44H223.791Z" fill="white"/>
</svg>
