<svg width="99" height="32" viewBox="0 0 99 32" fill="none" xmlns="http://www.w3.org/2000/svg">
<path d="M16.4364 5.9585H21.1694L13.9611 18.6023V24.9107H9.50003V18.6023L2.29166 5.9585H7.02471L11.7305 14.5682L16.4364 5.9585Z" fill="white"/>
<path d="M26.9147 25.2085C24.8474 25.2085 23.1337 24.5677 21.7736 23.2862C20.4135 21.9866 19.7335 20.299 19.7335 18.2233C19.7335 16.1656 20.4045 14.487 21.7464 13.1874C23.1065 11.8878 24.7839 11.238 26.7787 11.238C28.7372 11.238 30.3602 11.8517 31.6477 13.0791C32.9352 14.2884 33.579 15.8858 33.579 17.8713C33.579 18.2323 33.5518 18.6835 33.4974 19.225H24.1129C24.258 20.0734 24.5753 20.7141 25.065 21.1473C25.5727 21.5805 26.1802 21.7971 26.8875 21.7971C27.4859 21.7971 28.0027 21.6527 28.4379 21.3639C28.8732 21.0571 29.1452 20.6509 29.254 20.1456L33.035 21.1473C32.6723 22.483 31.9288 23.4938 30.8045 24.1797C29.6983 24.8656 28.4017 25.2085 26.9147 25.2085ZM24.2489 16.5176H29.4172C29.3084 16.0302 29.0182 15.6061 28.5467 15.2451C28.0934 14.866 27.5131 14.6765 26.8059 14.6765C25.5365 14.6765 24.6841 15.2902 24.2489 16.5176Z" fill="white"/>
<path d="M48.0416 21.4451C48.1867 21.4451 48.3953 21.4 48.6673 21.3098V24.9648C48.2864 25.1092 47.7515 25.1814 47.0624 25.1814C45.3215 25.1814 44.1428 24.6941 43.5262 23.7194C42.5832 24.6941 41.2322 25.1814 39.4732 25.1814C38.095 25.1814 36.9707 24.8204 36.1002 24.0984C35.2479 23.3765 34.8218 22.3837 34.8218 21.1202C34.8218 19.947 35.2117 18.9994 35.9914 18.2774C36.7712 17.5554 37.823 17.1313 39.1468 17.0049L43.0366 16.6529V16.3822C43.0366 15.8588 42.8552 15.4436 42.4926 15.1368C42.1299 14.8119 41.6674 14.6494 41.1053 14.6494C40.0898 14.6494 39.4823 15.1368 39.2828 16.1115L35.393 15.57C35.6287 14.0538 36.2997 12.9528 37.4059 12.2669C38.5302 11.581 39.8722 11.238 41.4317 11.238C43.2814 11.238 44.7321 11.6803 45.7839 12.5647C46.8538 13.4311 47.3888 14.6675 47.3888 16.2739V20.7141C47.3888 21.2015 47.6064 21.4451 48.0416 21.4451ZM43.0366 19.6582V19.3604L40.4797 19.6582C40.0444 19.7124 39.6999 19.8568 39.446 20.0914C39.1921 20.308 39.0652 20.5697 39.0652 20.8766C39.0652 21.2376 39.2193 21.5173 39.5276 21.7159C39.854 21.9144 40.262 22.0047 40.7517 21.9866C41.4045 21.9505 41.9485 21.7339 42.3837 21.3368C42.819 20.9397 43.0366 20.3802 43.0366 19.6582Z" fill="white"/>
<path d="M58.4545 11.238C59.9777 11.238 61.2199 11.6803 62.181 12.5647C63.1603 13.4491 63.6499 14.6855 63.6499 16.2739V24.9107H59.2977V17.6005C59.2977 16.7883 59.0982 16.1836 58.6993 15.7866C58.3003 15.3714 57.7563 15.1638 57.0672 15.1638C56.3781 15.1638 55.825 15.3804 55.4079 15.8136C55.0089 16.2468 54.8095 16.8786 54.8095 17.7088V24.9107H50.4572V5.9585H54.8095V12.6188C55.6981 11.6983 56.913 11.238 58.4545 11.238Z" fill="white"/>
<path d="M74.9419 11.5088H79.2941V24.9107H74.9419V23.8006C74.0533 24.7212 72.8383 25.1814 71.2969 25.1814C69.8462 25.1814 68.613 24.7212 67.5975 23.8006C66.6001 22.862 66.1014 21.5534 66.1014 19.8748V11.5088H70.4537V18.9272C70.4537 19.7033 70.6532 20.29 71.0521 20.687C71.4511 21.0661 71.9951 21.2556 72.6842 21.2556C73.3733 21.2556 73.9173 21.039 74.3163 20.6058C74.7334 20.1726 74.9419 19.5409 74.9419 18.7106V11.5088Z" fill="white"/>
<path d="M90.0712 11.238C91.9209 11.238 93.4895 11.8968 94.777 13.2145C96.0646 14.5141 96.7083 16.1836 96.7083 18.2233C96.7083 20.2268 96.0736 21.8874 94.8042 23.205C93.5348 24.5226 91.9662 25.1814 90.0984 25.1814C88.5026 25.1814 87.1969 24.6941 86.1814 23.7194V24.9107H81.8292V5.9585H86.1814V12.673C87.1788 11.7163 88.4754 11.238 90.0712 11.238ZM89.2007 21.4181C90.0349 21.4181 90.7421 21.1293 91.3224 20.5517C91.9027 19.956 92.1929 19.1799 92.1929 18.2233C92.1929 17.2486 91.9027 16.4724 91.3224 15.8949C90.7603 15.2992 90.0531 15.0014 89.2007 15.0014C88.3303 15.0014 87.6049 15.2992 87.0246 15.8949C86.4625 16.4724 86.1814 17.2486 86.1814 18.2233C86.1814 19.1799 86.4625 19.956 87.0246 20.5517C87.6049 21.1293 88.3303 21.4181 89.2007 21.4181Z" fill="white"/>
</svg>
